# xmcd
#
# Track frame offsets: 
#        150
#        12812
#        26050
#        39925
#        51000
#        64300
#        76975
#        96700
#        111150
#        124150
#        137887
#        152300
#        164075
#        174175
#        185437
#        198675
#        209987
#        222600
#        234625
#
# Disc length: 3279 seconds
#
# Revision: 0
# Processed by: cddbd v1.5.2PL0 Copyright (c) Steve Scherf et al.
# Submitted via: ExactAudioCopyFreeDBPlugin 1.0
#
DISCID=1c0ccd13
DTITLE=Various Artist - Old Style Love Songs (I)
DYEAR=1900
DGENRE=Other
TTITLE0=500 Miles
TTITLE1=Cotton Field
TTITLE2=Green Fields
TTITLE3=Yellow Bird
TTITLE4=Ray Peterson - Tell Laura I Love Her
TTITLE5=Kathy Linden - Goodbye Jimmy Goodbye
TTITLE6=Conway Twitty and Joni Lee - Don't Cry Joni
TTITLE7=Don't Worry
TTITLE8=I Really Don't Want to Know
TTITLE9=The Yellow Rose of Taxas
TTITLE10=Johnny Mathis - What Will My Marie Say
TTITLE11=Corrina Corrina
TTITLE12=Go Away Little Girl
TTITLE13=Hey! Paula
TTITLE14=Any Williams - Dear Heart
TTITLE15=Dream Lover
TTITLE16=Lobo - All For the Love of a Girl
TTITLE17=Everybody's Somebody's Fool
TTITLE18=More
EXTD=
EXTT0=
EXTT1=
EXTT2=
EXTT3=
EXTT4=
EXTT5=
EXTT6=
EXTT7=
EXTT8=
EXTT9=
EXTT10=
EXTT11=
EXTT12=
EXTT13=
EXTT14=
EXTT15=
EXTT16=
EXTT17=
EXTT18=
PLAYORDER=
